<?xml version="1.0" encoding="UTF-8" standalone="no"?>
<!-- Created with Inkscape (http://www.inkscape.org/) -->

<svg
   width="210mm"
   height="297mm"
   viewBox="0 0 210 297"
   version="1.1"
   id="svg2334"
   inkscape:version="1.1.1 (1:1.1+202109281949+c3084ef5ed)"
   sodipodi:docname="compute.svg"
   xmlns:inkscape="http://www.inkscape.org/namespaces/inkscape"
   xmlns:sodipodi="http://sodipodi.sourceforge.net/DTD/sodipodi-0.dtd"
   xmlns="http://www.w3.org/2000/svg"
   xmlns:svg="http://www.w3.org/2000/svg">
  <sodipodi:namedview
     id="namedview2336"
     pagecolor="#ffffff"
     bordercolor="#666666"
     borderopacity="1.0"
     inkscape:pageshadow="2"
     inkscape:pageopacity="0.0"
     inkscape:pagecheckerboard="0"
     inkscape:document-units="mm"
     showgrid="false"
     inkscape:zoom="0.69219276"
     inkscape:cx="396.56583"
     inkscape:cy="561.25984"
     inkscape:window-width="1854"
     inkscape:window-height="1016"
     inkscape:window-x="66"
     inkscape:window-y="27"
     inkscape:window-maximized="1"
     inkscape:current-layer="layer1" />
  <defs
     id="defs2331" />
  <g
     inkscape:label="Layer 1"
     inkscape:groupmode="layer"
     id="layer1">
    <g
       style="fill:#c94326;fill-opacity:1"
       id="g4648"
       transform="matrix(0.22378555,0,0,0.22378555,50.440376,23.993005)">
      <path
         d="m 58.5,60.9 c 0,-3.2 2.4,-5.8 5.4,-6.1 -0.6,-2.5 -1.6,-4.9 -2.9,-7.1 -2.4,1.9 -5.9,1.7 -8.2,-0.5 -2.2,-2.2 -2.4,-5.8 -0.5,-8.2 -2.2,-1.3 -4.6,-2.3 -7.1,-2.9 -0.4,3.1 -3,5.4 -6.1,5.4 -3.2,0 -5.8,-2.4 -6.1,-5.4 -2.5,0.6 -4.9,1.6 -7.1,2.9 1.9,2.4 1.7,5.9 -0.5,8.2 -2.2,2.3 -5.8,2.4 -8.2,0.5 -1.3,2.2 -2.3,4.6 -2.9,7.1 3.1,0.4 5.4,3 5.4,6.1 0,3.1 -2.4,5.8 -5.4,6.1 0.6,2.5 1.6,4.9 2.9,7.1 2.4,-1.9 5.9,-1.7 8.2,0.5 2.2,2.2 2.4,5.8 0.5,8.2 2.2,1.3 4.6,2.3 7.1,2.9 0.4,-3.1 3,-5.4 6.1,-5.4 3.2,0 5.8,2.4 6.1,5.4 2.5,-0.6 4.9,-1.6 7.1,-2.9 -1.9,-2.4 -1.7,-5.9 0.5,-8.2 2.2,-2.2 5.8,-2.4 8.2,-0.5 1.3,-2.2 2.3,-4.6 2.9,-7.1 -3,-0.4 -5.4,-3 -5.4,-6.1 z m -19.4,9.6 c -5.3,0 -9.6,-4.3 -9.6,-9.6 0,-5.3 4.3,-9.6 9.6,-9.6 5.3,0 9.6,4.3 9.6,9.6 0.1,5.3 -4.3,9.6 -9.6,9.6 z"
         id="path4631"
         style="fill:#c94326;fill-opacity:1" />
      <path
         d="m 82.2,23.6 c -0.9,-2 -0.1,-4.3 1.7,-5.4 -1.1,-1.4 -2.4,-2.7 -3.9,-3.7 -1,1.9 -3.3,2.8 -5.3,2 -2.1,-0.8 -3.1,-3 -2.6,-5.1 -1.8,-0.2 -3.6,-0.2 -5.4,0.1 0.6,2.1 -0.4,4.3 -2.4,5.2 -2,0.9 -4.3,0.1 -5.4,-1.7 -1.4,1.1 -2.7,2.4 -3.7,3.9 1.9,1 2.8,3.3 2,5.3 -0.8,2.1 -3,3.1 -5.1,2.6 -0.2,1.8 -0.2,3.6 0.1,5.4 2.1,-0.6 4.3,0.4 5.2,2.4 0.9,2 0.1,4.3 -1.7,5.4 1.1,1.4 2.4,2.7 3.9,3.7 1,-1.9 3.3,-2.8 5.3,-2 2.1,0.8 3.1,3 2.6,5.1 1.8,0.2 3.6,0.2 5.4,-0.1 -0.6,-2.1 0.4,-4.3 2.4,-5.2 2,-0.9 4.3,-0.1 5.4,1.7 1.4,-1.1 2.7,-2.4 3.7,-3.9 -1.9,-1 -2.8,-3.3 -2,-5.3 0.8,-2.1 3,-3.1 5.1,-2.6 0.2,-1.8 0.2,-3.6 -0.1,-5.4 -2,0.6 -4.3,-0.4 -5.2,-2.4 z m -9.6,11.6 c -3.4,1.5 -7.3,0 -8.9,-3.4 -1.5,-3.4 0,-7.3 3.4,-8.9 3.4,-1.5 7.4,0 8.9,3.4 1.5,3.4 0,7.4 -3.4,8.9 z"
         id="path4633"
         style="fill:#c94326;fill-opacity:1" />
      <path
         d="m 89.4,59.8 c -0.3,-1.7 0.8,-3.3 2.4,-3.8 -0.6,-1.3 -1.3,-2.5 -2.2,-3.5 -1.1,1.2 -3,1.5 -4.4,0.5 -1.4,-1 -1.8,-2.9 -1,-4.3 -1.3,-0.5 -2.6,-0.8 -4,-0.9 0.1,1.7 -1.1,3.2 -2.8,3.4 -1.7,0.3 -3.3,-0.8 -3.8,-2.4 -1.3,0.6 -2.5,1.3 -3.5,2.2 1.2,1.1 1.5,3 0.5,4.4 -1,1.4 -2.9,1.8 -4.3,1 -0.5,1.3 -0.8,2.6 -0.9,4 1.7,-0.1 3.2,1.1 3.4,2.8 0.2,1.8 -0.8,3.4 -2.4,3.8 0.6,1.3 1.3,2.5 2.2,3.5 1.1,-1.2 3,-1.5 4.4,-0.5 1.4,1 1.8,2.9 1,4.3 1.3,0.5 2.6,0.8 4,0.9 -0.1,-1.7 1.1,-3.2 2.8,-3.4 1.7,-0.3 3.3,0.8 3.8,2.4 1.3,-0.6 2.5,-1.3 3.5,-2.2 -1.2,-1.1 -1.5,-3 -0.5,-4.4 1,-1.4 2.9,-1.8 4.3,-1 0.5,-1.3 0.8,-2.6 0.9,-4 -1.6,0.1 -3.1,-1.1 -3.4,-2.8 z m -9.5,6.9 c -2.8,0.5 -5.5,-1.4 -6,-4.3 -0.5,-2.8 1.4,-5.5 4.3,-6 2.8,-0.5 5.5,1.4 6,4.3 0.5,2.8 -1.4,5.5 -4.3,6 z"
         id="path4635"
         style="fill:#c94326;fill-opacity:1" />
    </g>
  </g>
</svg>
