<?xml version="1.0" encoding="UTF-8" standalone="no"?>
<!-- Created with Inkscape (http://www.inkscape.org/) -->

<svg
   width="210mm"
   height="297mm"
   viewBox="0 0 210 297"
   version="1.1"
   id="svg38689"
   inkscape:version="1.1.1 (1:1.1+202109281949+c3084ef5ed)"
   sodipodi:docname="fish_model.svg"
   xmlns:inkscape="http://www.inkscape.org/namespaces/inkscape"
   xmlns:sodipodi="http://sodipodi.sourceforge.net/DTD/sodipodi-0.dtd"
   xmlns="http://www.w3.org/2000/svg"
   xmlns:svg="http://www.w3.org/2000/svg">
  <sodipodi:namedview
     id="namedview38691"
     pagecolor="#ffffff"
     bordercolor="#666666"
     borderopacity="1.0"
     inkscape:pageshadow="2"
     inkscape:pageopacity="0.0"
     inkscape:pagecheckerboard="0"
     inkscape:document-units="mm"
     showgrid="false"
     inkscape:zoom="0.69219276"
     inkscape:cx="87.403399"
     inkscape:cy="561.25984"
     inkscape:window-width="1854"
     inkscape:window-height="1016"
     inkscape:window-x="66"
     inkscape:window-y="27"
     inkscape:window-maximized="1"
     inkscape:current-layer="layer1" />
  <defs
     id="defs38686" />
  <g
     inkscape:label="Layer 1"
     inkscape:groupmode="layer"
     id="layer1">
    <g
       id="g5035"
       transform="matrix(1.1261077,0,0,1.1261077,-24.328451,-78.385097)"
       style="fill:#1c8f8d;fill-opacity:0.992157"
       inkscape:export-filename="/home/metienne/git/HDR/_presentation/fish_modelpng"
       inkscape:export-xdpi="192"
       inkscape:export-ydpi="192">
      <g
         style="fill:#1c8f8d;fill-opacity:0.992157"
         id="g4861"
         transform="matrix(0.05167643,0,0,0.05167643,89.858621,92.021448)">
        <path
           d="m 189.246,74.592 51.875,34.377 V 66.594 h -49.465 c -4.323,0 -6.013,5.611 -2.41,7.998 z"
           id="path4835"
           style="fill:#1c8f8d;fill-opacity:0.992157" />
        <polygon
           points="251.801,66.594 251.801,116.047 251.801,216.617 265.845,216.617 265.845,66.594 252.799,66.594 "
           id="polygon4837"
           style="fill:#1c8f8d;fill-opacity:0.992157" />
        <path
           d="m 82.75555,290.64712 c -7.131,0 -12.932,-5.801 -12.932,-12.933 h -9.693 c 0,12.476 10.149,22.626 22.625,22.626 12.476,0 22.626,-10.15 22.626,-22.626 0,-10.813 -7.625,-19.878 -17.78,-22.104 v -7.473 c 3.135,-1.717 5.262,-5.045 5.262,-8.871 0,-3.827 -2.127,-7.155 -5.262,-8.871 v -53.123 l -9.692,-13.491 v 66.614 c -3.135,1.717 -5.261,5.045 -5.261,8.871 0,3.825 2.126,7.154 5.261,8.87 v 16.645 h 4.846 c 7.131,0 12.933,5.801 12.933,12.933 0,7.132 -5.802,12.933 -12.933,12.933 z"
           id="path4839"
           style="fill:#1c8f8d;fill-opacity:0.992157" />
        <path
           d="m 77.485,153.716 c 0.868,0 1.705,-0.121 2.509,-0.327 l 9.784,14.207 10.748,15.604 9.692,14.073 10.902,15.829 96.183,139.655 c 2.354,-0.372 4.721,-0.754 7.1,-1.147 V 309.861 L 86.643,147.865 c 0.604,-1.295 0.95,-2.734 0.95,-4.258 0,-5.582 -4.525,-10.107 -10.108,-10.107 -5.583,0 -10.108,4.525 -10.108,10.107 0,5.583 4.526,10.109 10.108,10.109 z"
           id="path4841"
           style="fill:#1c8f8d;fill-opacity:0.992157" />
        <path
           d="m 228.625,253.611 h 10.019 v 96.169 c 50.418,-8.899 105.228,-22.657 155.465,-43.914 v -52.255 h 10.019 V 230.858 H 265.845 251.801 228.625 Z m 116.646,25.196 c 9.032,0 16.354,7.322 16.354,16.354 0,9.032 -7.321,16.354 -16.354,16.354 -9.033,0 -16.354,-7.322 -16.354,-16.354 0,-9.032 7.322,-16.354 16.354,-16.354 z m -57.523,0 c 9.032,0 16.354,7.322 16.354,16.354 0,9.032 -7.321,16.354 -16.354,16.354 -9.033,0 -16.354,-7.322 -16.354,-16.354 0,-9.032 7.322,-16.354 16.354,-16.354 z"
           id="path4843"
           style="fill:#1c8f8d;fill-opacity:0.992157" />
        <path
           d="m 126.282,445.406 h 179.874 c 50.114,0 95.585,-29.115 116.831,-74.503 14.647,-31.291 23.646,-58.552 27.517,-71.284 0.661,-2.177 -1.051,-4.109 -3.033,-4.109 -0.517,0 -1.052,0.132 -1.567,0.425 -13.174,7.478 -26.949,14.284 -41.113,20.495 -1.773,0.777 -3.556,1.541 -5.341,2.301 -1.775,0.754 -3.554,1.502 -5.34,2.238 -50.488,20.808 -105.225,34.324 -155.465,43.099 -1.787,0.312 -3.565,0.617 -5.34,0.917 -1.785,0.303 -3.568,0.603 -5.34,0.893 -84.484,13.83 -154.047,14.418 -165.208,14.418 -0.021,0 -0.046,0 -0.066,0 -0.801,0 -1.425,0.709 -1.325,1.504 1.21,9.684 3.936,18.494 7.345,26.267 9.99,22.782 32.693,37.339 57.571,37.339 z"
           id="path4845"
           style="fill:#1c8f8d;fill-opacity:0.992157" />
      </g>
      <path
         id="path4916"
         style="fill:#1c8f8d;fill-opacity:0.992157;stroke:none;stroke-width:0.799999;stroke-miterlimit:4;stroke-dasharray:none;stroke-dashoffset:16;stroke-opacity:1"
         d="m 84.843477,115.73433 a 9.6213206,8.1236628 0 0 0 4.811077,7.03523 9.6213206,8.1236628 0 0 0 9.62112,0 9.6213206,8.1236628 0 0 0 4.810556,-7.03523 h -9.621117 z m 5.374348,0.83147 c 0.323827,0.0125 0.65595,0.0927 0.995807,0.25942 0.300953,0.14364 0.567423,0.36218 0.827339,0.65629 0.02736,0.0274 0.04134,0.0685 0.04134,0.10955 0,0.041 -0.01398,0.0822 -0.04134,0.10956 -0.259916,0.29411 -0.526386,0.51265 -0.827339,0.65629 -1.087538,0.53351 -2.092973,0.17828 -3.016353,-0.43047 -0.294116,0.19836 -0.821002,0.4992 -1.176673,0.4992 -0.08892,0 -0.157097,-0.0687 -0.157097,-0.15761 0,-0.0137 -1.21e-4,-0.0339 0.0067,-0.0475 0.06156,-0.22572 0.08888,-0.43107 0.08888,-0.62942 0,-0.19836 -0.02733,-0.40371 -0.08888,-0.62942 -0.0068,-0.0137 -0.0067,-0.0339 -0.0067,-0.0475 0,-0.0889 0.06818,-0.15762 0.157097,-0.15762 0.355671,0 0.882557,0.30084 1.176673,0.4992 0.634823,-0.41852 1.308135,-0.71731 2.020546,-0.68988 z m 8.940539,0.95705 c 0.32383,0.0125 0.65595,0.0922 0.995806,0.2589 0.30095,0.14364 0.56742,0.36269 0.82734,0.65681 0.0274,0.0274 0.0413,0.0685 0.0413,0.10955 0,0.041 -0.014,0.0822 -0.0413,0.10956 -0.25992,0.29411 -0.52639,0.51265 -0.82734,0.65629 -1.087536,0.53351 -2.09297,0.17776 -3.016353,-0.43098 -0.294113,0.19835 -0.820999,0.49971 -1.176671,0.49971 -0.08892,0 -0.157096,-0.0687 -0.157096,-0.15762 0,-0.0137 -1.24e-4,-0.0339 0.0067,-0.0475 0.06156,-0.22571 0.08888,-0.43106 0.08888,-0.62942 0,-0.19835 -0.02732,-0.4037 -0.08888,-0.62941 -0.0068,-0.0137 -0.0067,-0.0344 -0.0067,-0.0481 0,-0.0889 0.06818,-0.1571 0.157096,-0.1571 0.355672,0 0.882558,0.30084 1.176671,0.49919 0.634826,-0.41851 1.308135,-0.7173 2.020547,-0.68988 z m -4.401797,2.72283 c 0.323826,0.0125 0.655434,0.0927 0.995289,0.25942 0.300953,0.14364 0.567941,0.36217 0.827857,0.65629 0.02736,0.0274 0.04082,0.0685 0.04082,0.10955 0,0.041 -0.01347,0.0822 -0.04082,0.10956 -0.259916,0.29411 -0.526904,0.51317 -0.827857,0.6568 -1.087538,0.53351 -2.092974,0.17777 -3.016353,-0.43098 -0.294114,0.19836 -0.821,0.4992 -1.176674,0.4992 -0.08892,0 -0.157096,-0.0682 -0.157096,-0.1571 0,-0.0137 -1.22e-4,-0.0344 0.0067,-0.0481 0.06156,-0.22571 0.08889,-0.43106 0.08889,-0.62942 0,-0.19835 -0.02732,-0.4037 -0.08889,-0.62942 -0.0068,-0.0137 -0.0067,-0.0339 -0.0067,-0.0475 0,-0.0889 0.06818,-0.15761 0.157096,-0.15761 0.355674,0 0.88256,0.30135 1.176674,0.49971 0.634825,-0.41851 1.30865,-0.71782 2.021064,-0.6904 z" />
    </g>
  </g>
</svg>
