<?xml version="1.0" encoding="UTF-8" standalone="no"?>
<!-- Created with Inkscape (http://www.inkscape.org/) -->

<svg
   version="1.1"
   id="svg2"
   xml:space="preserve"
   width="740.09381"
   height="455.09763"
   viewBox="0 0 740.09381 455.09763"
   sodipodi:docname="path_4.svg"
   inkscape:version="1.1.1 (1:1.1+202109281949+c3084ef5ed)"
   inkscape:export-filename="/home/metienne/git/HDR/_presentation/path_4.png"
   inkscape:export-xdpi="192"
   inkscape:export-ydpi="192"
   xmlns:inkscape="http://www.inkscape.org/namespaces/inkscape"
   xmlns:sodipodi="http://sodipodi.sourceforge.net/DTD/sodipodi-0.dtd"
   xmlns="http://www.w3.org/2000/svg"
   xmlns:svg="http://www.w3.org/2000/svg"><defs
     id="defs6"><clipPath
       clipPathUnits="userSpaceOnUse"
       id="clipPath28"><path
         d="m 8.22,8.22 h 706.3 v 418.3 H 8.22 Z"
         id="path26" /></clipPath></defs><sodipodi:namedview
     id="namedview4"
     pagecolor="#ffffff"
     bordercolor="#666666"
     borderopacity="1.0"
     inkscape:pageshadow="2"
     inkscape:pageopacity="0.0"
     inkscape:pagecheckerboard="0"
     showgrid="false"
     inkscape:zoom="0.33723958"
     inkscape:cx="268.35521"
     inkscape:cy="656.80309"
     inkscape:window-width="1854"
     inkscape:window-height="1016"
     inkscape:window-x="66"
     inkscape:window-y="27"
     inkscape:window-maximized="1"
     inkscape:current-layer="g16"
     fit-margin-top="0"
     fit-margin-left="0"
     fit-margin-right="0"
     fit-margin-bottom="0" /><g
     id="g8"
     inkscape:groupmode="layer"
     inkscape:label="path_p3"
     transform="matrix(1.3333333,0,0,-1.3333333,-117.07332,517.02506)"><g
       id="g10" /><g
       id="g12" /><g
       id="g14" /><g
       id="g16"
       style="fill:none" /><g
       id="g20" /><path
       d="m 381.64849,63.188415 c 0,1.07 0.88,1.95 1.96,1.95 1.07,0 1.95,-0.88 1.95,-1.95 0,-1.08 -0.88,-1.96 -1.95,-1.96 -1.08,0 -1.96,0.88 -1.96,1.96"
       style="fill:#000000;fill-opacity:0.298;fill-rule:nonzero;stroke:#000000;stroke-width:0.71;stroke-linecap:round;stroke-linejoin:round;stroke-miterlimit:10;stroke-dasharray:none;stroke-opacity:0.298"
       id="path64" /><path
       d="m 174.16777,69.709266 c 0,1.08 0.88,1.96 1.96,1.96 1.07,0 1.95,-0.88 1.95,-1.96 0,-1.07 -0.88,-1.95 -1.95,-1.95 -1.08,0 -1.96,0.88 -1.96,1.95"
       style="fill:#000000;fill-opacity:0.298;fill-rule:nonzero;stroke:#000000;stroke-width:0.71;stroke-linecap:round;stroke-linejoin:round;stroke-miterlimit:10;stroke-dasharray:none;stroke-opacity:0.298"
       id="path66" /><path
       d="m 171.71271,150.64155 c 0,1.07 0.88,1.95 1.96,1.95 1.07,0 1.95,-0.88 1.95,-1.95 0,-1.08 -0.88,-1.96 -1.95,-1.96 -1.08,0 -1.96,0.88 -1.96,1.96"
       style="fill:#000000;fill-opacity:0.298;fill-rule:nonzero;stroke:#000000;stroke-width:0.71;stroke-linecap:round;stroke-linejoin:round;stroke-miterlimit:10;stroke-dasharray:none;stroke-opacity:0.298"
       id="path68" /><path
       d="m 165.89593,137.13827 c 0,1.08 0.88,1.95 1.95,1.95 1.08,0 1.96,-0.87 1.96,-1.95 0,-1.08 -0.88,-1.95 -1.96,-1.95 -1.07,0 -1.95,0.87 -1.95,1.95"
       style="fill:#000000;fill-opacity:0.298;fill-rule:nonzero;stroke:#000000;stroke-width:0.71;stroke-linecap:round;stroke-linejoin:round;stroke-miterlimit:10;stroke-dasharray:none;stroke-opacity:0.298"
       id="path70" /><path
       d="m 273.17,95.86 c 0,1.07 0.88,1.95 1.95,1.95 1.08,0 1.96,-0.88 1.96,-1.95 0,-1.08 -0.88,-1.96 -1.96,-1.96 -1.07,0 -1.95,0.88 -1.95,1.96"
       style="fill:#000000;fill-opacity:0.298;fill-rule:nonzero;stroke:#000000;stroke-width:0.71;stroke-linecap:round;stroke-linejoin:round;stroke-miterlimit:10;stroke-dasharray:none;stroke-opacity:0.298"
       id="path72" /><path
       d="m 336.49,142.66 c 0,1.08 0.88,1.96 1.96,1.96 1.07,0 1.95,-0.88 1.95,-1.96 0,-1.07 -0.88,-1.95 -1.95,-1.95 -1.08,0 -1.96,0.88 -1.96,1.95"
       style="fill:#000000;fill-opacity:0.298;fill-rule:nonzero;stroke:#000000;stroke-width:0.71;stroke-linecap:round;stroke-linejoin:round;stroke-miterlimit:10;stroke-dasharray:none;stroke-opacity:0.298"
       id="path74" /><path
       d="m 286.87533,188.3489 c 0,1.08 0.88,1.96 1.95,1.96 1.08,0 1.96,-0.88 1.96,-1.96 0,-1.07 -0.88,-1.95 -1.96,-1.95 -1.07,0 -1.95,0.88 -1.95,1.95"
       style="fill:#000000;fill-opacity:0.298;fill-rule:nonzero;stroke:#000000;stroke-width:0.71;stroke-linecap:round;stroke-linejoin:round;stroke-miterlimit:10;stroke-dasharray:none;stroke-opacity:0.298"
       id="path76" /><path
       d="m 243.49,273.07 c 0,1.07 0.88,1.95 1.96,1.95 1.07,0 1.95,-0.88 1.95,-1.95 0,-1.08 -0.88,-1.96 -1.95,-1.96 -1.08,0 -1.96,0.88 -1.96,1.96"
       style="fill:#000000;fill-opacity:0.298;fill-rule:nonzero;stroke:#000000;stroke-width:0.71;stroke-linecap:round;stroke-linejoin:round;stroke-miterlimit:10;stroke-dasharray:none;stroke-opacity:0.298"
       id="path78" /><text
       transform="scale(1,-1)"
       style="font-variant:normal;font-weight:normal;font-size:11px;font-family:Helvetica;-inkscape-font-specification:Helvetica;writing-mode:lr-tb;fill:#000000;fill-opacity:1;fill-rule:nonzero;stroke:none"
       id="text86"
       x="379.95999"
       y="-68.290001"><tspan
         x="379.95999"
         y="-68.290001"
         id="tspan84"
         style="fill:#000000;fill-opacity:1">8</tspan></text><text
       transform="scale(1,-1)"
       style="font-variant:normal;font-weight:normal;font-size:11px;font-family:Helvetica;-inkscape-font-specification:Helvetica;writing-mode:lr-tb;fill:#000000;fill-opacity:1;fill-rule:nonzero;stroke:none"
       id="text90"
       x="168.46001"
       y="-71.75"><tspan
         x="168.46001 174.576"
         y="-71.75"
         sodipodi:role="line"
         id="tspan88">16</tspan></text><text
       transform="scale(1,-1)"
       style="font-variant:normal;font-weight:normal;font-size:11px;font-family:Helvetica;-inkscape-font-specification:Helvetica;writing-mode:lr-tb;fill:#000000;fill-opacity:1;fill-rule:nonzero;stroke:none"
       id="text94"
       x="164.11"
       y="-153.07001"><tspan
         x="164.11 170.226"
         y="-153.07001"
         sodipodi:role="line"
         id="tspan92">24</tspan></text><text
       transform="scale(1,-1)"
       style="font-variant:normal;font-weight:normal;font-size:11px;font-family:Helvetica;-inkscape-font-specification:Helvetica;writing-mode:lr-tb;fill:#000000;fill-opacity:1;fill-rule:nonzero;stroke:none"
       id="text98"
       x="158.12"
       y="-138.45"><tspan
         x="158.12 164.23601"
         y="-138.45"
         sodipodi:role="line"
         id="tspan96">33</tspan></text><text
       transform="scale(1,-1)"
       style="font-variant:normal;font-weight:normal;font-size:11px;font-family:Helvetica;-inkscape-font-specification:Helvetica;writing-mode:lr-tb;fill:#000000;fill-opacity:1;fill-rule:nonzero;stroke:none"
       id="text102"
       x="269"
       y="-98.910004"><tspan
         x="269 275.116"
         y="-98.910004"
         sodipodi:role="line"
         id="tspan100">44</tspan></text><text
       transform="scale(1,-1)"
       style="font-variant:normal;font-weight:normal;font-size:11px;font-family:Helvetica;-inkscape-font-specification:Helvetica;writing-mode:lr-tb;fill:#000000;fill-opacity:1;fill-rule:nonzero;stroke:none"
       id="text106"
       x="332.32999"
       y="-145.71001"><tspan
         x="332.32999 338.44601"
         y="-145.71001"
         sodipodi:role="line"
         id="tspan104">54</tspan></text><text
       transform="scale(1,-1)"
       style="font-variant:normal;font-weight:normal;font-size:11px;font-family:Helvetica;-inkscape-font-specification:Helvetica;writing-mode:lr-tb;fill:#000000;fill-opacity:0.298;fill-rule:nonzero;stroke:none"
       id="text110"
       x="279.88"
       y="-190.72"><tspan
         x="279.88 285.996"
         y="-190.72"
         sodipodi:role="line"
         id="tspan108"
         style="fill:#000000;fill-opacity:0.962854">60</tspan></text><text
       transform="scale(1,-1)"
       style="font-variant:normal;font-weight:normal;font-size:11px;font-family:Helvetica;-inkscape-font-specification:Helvetica;writing-mode:lr-tb;fill:#000000;fill-opacity:1;fill-rule:nonzero;stroke:none"
       id="text114"
       x="239.33"
       y="-276.12"><tspan
         x="239.33 245.446"
         y="-276.12"
         sodipodi:role="line"
         id="tspan112">70</tspan></text><text
       transform="scale(1,-1)"
       style="font-variant:normal;font-weight:normal;font-size:5.41px;font-family:ZapfDingbats;-inkscape-font-specification:ZapfDingbats;writing-mode:lr-tb;fill:#ff0000;fill-opacity:1;fill-rule:nonzero;stroke:#ff0000;stroke-width:0.71;stroke-linecap:round;stroke-linejoin:round;stroke-miterlimit:10;stroke-dasharray:none;stroke-opacity:1"
       id="text122"
       x="349.75"
       y="-65.68"><tspan
         x="349.75"
         y="-65.68"
         id="tspan120">●</tspan></text><text
       transform="scale(1,-1)"
       style="font-variant:normal;font-weight:normal;font-size:5.41px;font-family:ZapfDingbats;-inkscape-font-specification:ZapfDingbats;writing-mode:lr-tb;fill:#ff0000;fill-opacity:1;fill-rule:nonzero;stroke:#ff0000;stroke-width:0.71;stroke-linecap:round;stroke-linejoin:round;stroke-miterlimit:10;stroke-dasharray:none;stroke-opacity:1"
       id="text126"
       x="181.86"
       y="-63.66"><tspan
         x="181.86"
         y="-63.66"
         id="tspan124">●</tspan></text><text
       transform="scale(1,-1)"
       style="font-variant:normal;font-weight:normal;font-size:5.41px;font-family:ZapfDingbats;-inkscape-font-specification:ZapfDingbats;writing-mode:lr-tb;fill:#ff0000;fill-opacity:1;fill-rule:nonzero;stroke:#ff0000;stroke-width:0.71;stroke-linecap:round;stroke-linejoin:round;stroke-miterlimit:10;stroke-dasharray:none;stroke-opacity:1"
       id="text130"
       x="127.15"
       y="-162.32001"><tspan
         x="127.15"
         y="-162.32001"
         id="tspan128">●</tspan></text><text
       transform="scale(1,-1)"
       style="font-variant:normal;font-weight:normal;font-size:5.41px;font-family:ZapfDingbats;-inkscape-font-specification:ZapfDingbats;writing-mode:lr-tb;fill:#ff0000;fill-opacity:1;fill-rule:nonzero;stroke:#ff0000;stroke-width:0.71;stroke-linecap:round;stroke-linejoin:round;stroke-miterlimit:10;stroke-dasharray:none;stroke-opacity:1"
       id="text134"
       x="163.64999"
       y="-132.98"><tspan
         x="163.64999"
         y="-132.98"
         id="tspan132">●</tspan></text><text
       transform="scale(1,-1)"
       style="font-variant:normal;font-weight:normal;font-size:5.41px;font-family:ZapfDingbats;-inkscape-font-specification:ZapfDingbats;writing-mode:lr-tb;fill:#ff0000;fill-opacity:1;fill-rule:nonzero;stroke:#ff0000;stroke-width:0.71;stroke-linecap:round;stroke-linejoin:round;stroke-miterlimit:10;stroke-dasharray:none;stroke-opacity:1"
       id="text138"
       x="246.22"
       y="-88.68"><tspan
         x="246.22"
         y="-88.68"
         id="tspan136">●</tspan></text><text
       transform="scale(1,-1)"
       style="font-variant:normal;font-weight:normal;font-size:5.41px;font-family:ZapfDingbats;-inkscape-font-specification:ZapfDingbats;writing-mode:lr-tb;fill:#ff0000;fill-opacity:1;fill-rule:nonzero;stroke:#ff0000;stroke-width:0.71;stroke-linecap:round;stroke-linejoin:round;stroke-miterlimit:10;stroke-dasharray:none;stroke-opacity:1"
       id="text142"
       x="360.57001"
       y="-122.56"><tspan
         x="360.57001"
         y="-122.56"
         id="tspan140">●</tspan></text><text
       transform="scale(1,-1)"
       style="font-variant:normal;font-weight:normal;font-size:5.41px;font-family:ZapfDingbats;-inkscape-font-specification:ZapfDingbats;writing-mode:lr-tb;fill:#ff0000;fill-opacity:1;fill-rule:nonzero;stroke:#ff0000;stroke-width:0.71;stroke-linecap:round;stroke-linejoin:round;stroke-miterlimit:10;stroke-dasharray:none;stroke-opacity:1"
       id="text146"
       x="322.17001"
       y="-189.5"><tspan
         x="322.17001"
         y="-189.5"
         id="tspan144">●</tspan></text><text
       transform="scale(1,-1)"
       style="font-variant:normal;font-weight:normal;font-size:5.41px;font-family:ZapfDingbats;-inkscape-font-specification:ZapfDingbats;writing-mode:lr-tb;fill:#ff0000;fill-opacity:1;fill-rule:nonzero;stroke:#ff0000;stroke-width:0.71;stroke-linecap:round;stroke-linejoin:round;stroke-miterlimit:10;stroke-dasharray:none;stroke-opacity:1"
       id="text150"
       x="255.60001"
       y="-290.41"><tspan
         x="255.60001"
         y="-290.41"
         id="tspan148">●</tspan></text><g
       id="g152" /><g
       id="g154" /><g
       id="g156" /><g
       id="g158" /><g
       id="g160" /><g
       id="g162" /><g
       id="g164" /><g
       id="g166" /><g
       id="g168" /><g
       id="g170" /><g
       id="g172" /><g
       id="g174" /><g
       id="g176" /><g
       id="g178" /><g
       id="g180" /><g
       id="g182" /><g
       id="g184" /><g
       id="g186" /><g
       id="g188" /><g
       id="g190" /><g
       id="g192" /><g
       id="g194" /><g
       id="g196" /><g
       id="g198" /><g
       id="g200" /><g
       id="g202" /><g
       id="g204" /><g
       id="g206" /><g
       id="g208" /><g
       id="g210" /><g
       id="g212" /><g
       id="g214" /><g
       id="g216" /><g
       id="g218" /><g
       id="g220" /><g
       id="g222" /><g
       id="g224" /><g
       id="g226" /><g
       id="g228" /><g
       id="g230" /><g
       id="g232" /><g
       id="g234" /><g
       id="g236" /><g
       id="g238" /><path
       d="m 642.71,387.26 -3.6,-1.17 -269.11,-88 -27.67,-9.65 -17.86,-6.41 -24.31,-9.04 -7.9,-3.04 -16.64,-6.61 -17.89,-7.55 -9.78,-4.39 -36.7,-19.74 -12.16,-9.52 -4.83,-5.35 -0.91,-1.25 -3.66,-9.01 -0.1,-1.91 0.41,-3.28 0.05,-0.21 1.02,-2.88 2,-3.44 2.33,-2.89 4.58,-4.28 4.14,-3.11 9.6,-5.88 13.8,-6.85 1.12,-0.51 5.47,-2.4 23.76,-9.57 6.43,-2.46 1.94,-0.73 8.06,-3.03 4.23,-1.59 2.76,-1.04 3.32,-1.24 9.77,-3.71 14.51,-5.63 2.01,-0.79 0.42,-0.17 6.39,-2.59 1.48,-0.61 0.37,-0.15 8.21,-3.46 0.31,-0.13 5.46,-2.39 4.06,-1.84 3.86,-1.79 2.53,-1.21 4.75,-2.33 2.17,-1.1 6.64,-3.51 0.57,-0.32 1.75,-0.98 6.46,-3.82 0.58,-0.36 3.97,-2.56 8.28,-6.07 0.89,-0.73 0.54,-0.45 0.45,-0.38 0.66,-0.58 6.15,-6.17 1.23,-1.5 0.03,-0.04 1.03,-1.38 1.22,-1.82 1.62,-2.98 1.32,-3.52 0.15,-0.59 0.13,-0.57 0.07,-0.38 0.26,-4.28 -0.45,-2.75 -0.07,-0.25 -0.79,-2.22 -0.88,-1.74 -0.97,-1.51 -0.62,-0.83 -2.2,-2.46 -0.93,-0.87 -0.09,-0.08 -0.01,-0.01 -0.74,-0.63 -1.54,-1.22 -0.47,-0.34 -2.65,-1.76 -2.39,-1.38 -0.88,-0.47 -0.68,-0.34 -3.58,-1.66 -0.14,-0.06 -3.48,-1.4 -10.45,-3.25 -1.62,-0.41 -1.9,-0.46 -2.34,-0.52 -0.45,-0.1 -3.57,-0.71 -6.19,-1.05 -2.97,-0.44 -5.9,-0.73 -8.91,-0.83 -1.55,-0.12 -1.23,-0.08 -1.08,-0.07 -7.27,-0.37 -0.26,-0.01 -1.41,-0.05 -3.55,-0.1 -4.5,-0.08 -9.91,0.03 -2.21,0.04 -0.46,0.01 -0.7,0.01 -2.68,0.07 -0.21,0.01 -0.84,0.03 -2.27,0.08 -5.17,0.22 -1.16,0.06 -1.82,0.1 -4.01,0.25 -0.85,0.05 -6.42,0.48 -2.5,0.21 -0.16,0.01 -1.47,0.13 -9.31,0.93 -1.88,0.22 -2.13,0.25 -4.01,0.49 -0.28,0.04 -3.22,0.43 -3.38,0.47 -7.29,1.13 -0.4,0.06 -1.61,0.27 -5.82,1.04 -2.07,0.39 -0.37,0.07 -10.77,2.3 -0.25,0.06 -0.39,0.09 -0.16,0.04 -4.19,1.04 -4.52,1.23 -6.1,1.86 -1.53,0.52 -0.44,0.15 -0.61,0.21 -1.07,0.39 -0.09,0.03 -1.46,0.55 -3.19,1.29 -4.05,1.87 -0.01,0.01 -0.63,0.32 -0.06,0.03 -1.13,0.6 -0.2,0.11 -0.3,0.17 -1.69,1 -0.03,0.02 -1.35,0.88 -0.18,0.12 -2.03,1.51 -0.2,0.16 -0.11,0.09 -1.27,1.13 -1.05,1.05 -0.6,0.67 -0.04,0.04 -0.44,0.53 -0.06,0.09 -0.4,0.52 -0.06,0.07 -0.73,1.1 -0.62,1.07 -0.15,0.31 -0.16,0.31 -0.69,1.73 -0.25,0.79 -0.02,0.06 -0.22,0.92 -0.01,0.03 -0.27,1.57 -0.02,0.14 -0.03,0.3 -0.01,0.03 v 0 l -0.02,0.27 -0.08,2.08 0.01,0.46 v 0.13 l 0.01,0.23 0.02,0.53 0.06,0.77 0.01,0.08 0.47,3.41 0.97,4.31 0.04,0.17 0.09,0.32 0.08,0.32 0.52,1.89 1.01,3.48 0.23,0.79 0.52,1.77 0.44,1.47 0.05,0.19 0.1,0.35 0.49,1.7 0.28,1 0.09,0.32 0.04,0.16 0.06,0.23 0.17,0.6 0.51,1.98 0.08,0.29 0.36,1.49 0.14,0.6 0.13,0.56 0.17,0.77 0.35,1.7 0.21,1.08 0.48,2.79 0.19,1.25 v 0.05 l 0.09,0.7 0.01,0.05 0.03,0.26 0.09,0.68 0.11,1.09 0.11,1.11 v 0.01 l 0.08,0.99 0.02,0.37 0.07,1.25 0.04,0.77 v 0.01 l 0.04,2.3 v 0.24 0.28 0.17 l -0.01,0.42 v 0.3 l -0.05,1.59 -0.11,1.78 -0.02,0.33 -0.05,0.62 -0.19,1.78 -0.11,0.89 -0.09,0.62 -0.05,0.32 -0.01,0.08 -0.34,2.02 -0.22,1.09 -0.31,1.4 -0.66,2.51 v 0.01 l -0.11,0.38 -0.02,0.09 -0.6,1.87 -0.35,0.99 -0.42,1.12 -0.54,1.34 -0.5,1.11 -0.12,0.27 -0.43,0.88 -0.72,1.36 v 0 l -0.25,0.45 -0.05,0.09 -0.75,1.22 -0.21,0.33 -0.83,1.16 -0.17,0.22 -0.27,0.35 -0.54,0.61 -0.38,0.4 v 0.01 l -0.07,0.07 -0.1,0.09 -0.02,0.02 -0.13,0.12 -0.17,0.15 -0.28,0.23 -1.08,0.68 -0.08,0.04 h -0.01 l -0.28,0.1 -0.26,0.06 -0.4,0.01 -0.25,-0.05 -0.1,-0.03 -0.07,-0.03 -0.67,-0.58 -0.05,-0.08 -0.14,-0.25 -0.35,-1.09 -0.07,-0.4 -0.02,-0.1 -0.01,-0.05 v -0.05 l -0.05,-0.46 -0.03,-0.34 -0.01,-0.27 v -0.01 l -0.01,-0.06 -0.01,-0.94 0.02,-0.67 0.03,-0.58 0.1,-1.21 0.01,-0.09 v -0.02 l 0.02,-0.17 0.06,-0.55 0.01,-0.04 0.2,-1.51 0.03,-0.21 0.1,-0.62 v -0.01 l 0.05,-0.28 0.23,-1.28 0.24,-1.24 0.08,-0.42 0.03,-0.13 0.12,-0.55 0.03,-0.13 0.52,-2.3 0.45,-1.79 0.04,-0.17 0.13,-0.5 0.08,-0.28 0.49,-1.81 0.09,-0.32 0.12,-0.42 0.01,-0.03 0.12,-0.43 0.02,-0.03 0.14,-0.5 0.17,-0.57 0.06,-0.19 0.34,-1.1 0.09,-0.29 0.06,-0.19 0.35,-1.06 0.82,-2.41 0.23,-0.63 0.16,-0.45 0.08,-0.2 0.16,-0.42 0.04,-0.11 0.24,-0.65 0.06,-0.14 0.13,-0.35 0.02,-0.03 0.13,-0.34 0.4,-0.97 0.64,-1.53 0.04,-0.1 0.24,-0.53 0.46,-1.02 0.03,-0.06 0.09,-0.18 0.04,-0.09 0.22,-0.45 0.08,-0.18 0.01,-0.01 0.34,-0.7 0.02,-0.04 0.7,-1.35 0.04,-0.07 0.64,-1.17 0.03,-0.06 0.46,-0.78 0.21,-0.36 0.46,-0.75 1.5,-2.24 0.22,-0.31 0.38,-0.51 0.46,-0.59 0.46,-0.59 0.33,-0.4 0.72,-0.84 0.81,-0.89 0.98,-1 0.05,-0.05 0.07,-0.07 0.73,-0.69 0.03,-0.03 1.41,-1.24 0.1,-0.08 0.44,-0.35 2.93,-2.14 0.8,-0.51 0.58,-0.36 0.13,-0.08 0.29,-0.17 0.52,-0.3 2.41,-1.28 0.23,-0.12 0.46,-0.22 1.19,-0.55 1.31,-0.57 0.1,-0.04 0.23,-0.1 h 0.01 l 0.45,-0.19 0.27,-0.1 0.52,-0.21 0.09,-0.03 1.04,-0.4 1.38,-0.48 0.66,-0.23 0.38,-0.12 2.03,-0.64 0.74,-0.22 0.7,-0.2 0.03,-0.01 3.57,-0.94 0.1,-0.03 0.33,-0.08 2.07,-0.48 0.65,-0.14 0.92,-0.2 h 0.01 l 1.29,-0.27 2.43,-0.47 1.56,-0.29 1.61,-0.27 1.95,-0.32 0.79,-0.13 1.36,-0.2 2.29,-0.33 2.84,-0.38 2.23,-0.27 2.29,-0.27 1.51,-0.16 1.95,-0.21 1.28,-0.13 0.44,-0.04 5.03,-0.46 0.41,-0.03 0.65,-0.05 0.85,-0.07 h 0.01 l 1.91,-0.15 2.89,-0.21 0.29,-0.02 0.86,-0.06 2.83,-0.18 0.86,-0.05 2,-0.11 1.9,-0.1 2.19,-0.11 h 0.06 l 4.7,-0.2 7.83,-0.23 2.28,-0.05 0.91,-0.01 0.39,-0.01 h 0.32 l 0.87,-0.02 h 0.02 l 3.18,-0.02 0.71,-0.01 h 0.42 0.07 0.4 0.72 0.74 0.18 l 2.11,0.01 0.73,0.01 0.99,0.01 1.58,0.02 1.52,0.02 1.91,0.04 0.88,0.02 3.89,0.13 0.24,0.01 6.73,0.32 0.83,0.06 3.69,0.25 3.61,0.31 6.09,0.66 0.18,0.02 1,0.13 0.5,0.07 1.18,0.16 0.04,0.01 1.8,0.27 3.73,0.62 1.04,0.2 1.77,0.35 3.92,0.91 0.87,0.22 0.85,0.23 0.12,0.04 0.39,0.11 0.12,0.03 0.39,0.12 0.83,0.24 0.11,0.04 2.26,0.73 3.91,1.54 2.28,1.09 3.71,2.28 0.24,0.18 0.84,0.66 0.16,0.12 0.4,0.35 0.82,0.77 0.68,0.7 0.19,0.22 0.24,0.28 0.57,0.73 0.11,0.15 1,1.59 0.31,0.61 0.14,0.3 0.51,1.34 0.29,1.04 0.1,0.49 0.05,0.28 0.17,1.44 0.01,0.32 -0.15,2.91 -0.08,0.49 -0.08,0.46 -0.03,0.11 -0.1,0.47 -0.55,1.99 -0.19,0.57 -0.15,0.41 -0.04,0.11 -0.19,0.48 -0.32,0.76 -0.01,0.03 -0.13,0.3 -0.38,0.8 -0.8,1.58 -0.08,0.14 -0.85,1.47 -0.01,0.02 -0.78,1.26 -0.78,1.17 -0.34,0.48 -0.72,1 -0.22,0.3 -0.01,0.02 -0.81,1.06 -0.34,0.44 -0.19,0.24 -0.36,0.44 -0.09,0.12 -3.37,3.91 -0.39,0.42 -0.8,0.86 -0.05,0.05 -0.75,0.79 -2.21,2.23 -0.32,0.32 -0.18,0.17 -0.46,0.45 -0.33,0.32 -0.77,0.73 -0.36,0.34 -0.31,0.3 -0.36,0.33 -0.49,0.46 -0.07,0.06 -1.37,1.25 -0.94,0.85 -0.1,0.08 -0.84,0.76 -0.25,0.21 -0.07,0.07 -1.22,1.06 v 0 l -0.7,0.61 -0.42,0.36 -0.83,0.7 -0.2,0.18 -1.31,1.1 -0.51,0.42 -1.98,1.64 -1.45,1.19 -0.44,0.36 -1.24,1 -0.57,0.46 -0.26,0.21 -0.51,0.41 -1.45,1.16 -0.04,0.03 -3.15,2.5 -0.34,0.27 -0.32,0.25 -0.84,0.67 -2.34,1.85 -0.53,0.42 -1.05,0.83 -3.03,2.4 -3.15,2.54 -0.45,0.37 -0.08,0.06 -1.13,0.92 -0.42,0.35 -0.65,0.54 -0.27,0.22 -0.98,0.81 v 0.01 l -0.02,0.02 -0.64,0.53 -0.78,0.66 -0.83,0.71 -0.21,0.18 -0.42,0.36 -0.57,0.5 -0.73,0.63 -1.04,0.92 -3.49,3.18 -0.26,0.24 -0.58,0.55 -0.89,0.86 -1.41,1.38 -0.34,0.34 -0.02,0.02 -0.91,0.92 -1.67,1.75 -0.56,0.6 -0.7,0.75 -0.82,0.92 -0.76,0.86 -1.13,1.32 -0.66,0.78 -1.09,1.35 -0.71,0.89 -1.12,1.46 -0.67,0.9 -0.06,0.09 -0.18,0.24 -0.07,0.1 -0.03,0.04 -0.54,0.76 -0.39,0.55 -0.74,1.07 -0.49,0.73 -0.1,0.15 -0.06,0.1 -0.39,0.58 -2.26,3.68 -0.99,1.73 -1.14,2.11 -0.72,1.41 -0.41,0.83 -0.02,0.04 -0.49,1 -0.09,0.2 -0.3,0.65 -0.78,1.71 -0.96,2.26 -0.24,0.58 -0.17,0.42 -0.48,1.24 -0.69,1.83 -0.02,0.05 -0.13,0.37 -0.34,0.94 -0.77,2.27 -0.35,1.1 -0.58,1.87 -0.04,0.14 -0.59,2.02 -0.44,1.63 -0.32,1.22 -0.34,1.32 -0.37,1.51 -0.23,0.99 -0.26,1.14 -0.11,0.51 -0.02,0.08 -0.09,0.4 -0.11,0.49 -0.14,0.67 -0.13,0.61 -0.05,0.27 -0.12,0.59 -0.24,1.18 -0.25,1.24 -0.03,0.19 -0.04,0.19 -0.13,0.7 v 0 l -0.05,0.22 -0.17,0.91 -0.16,0.88 -0.13,0.69 -0.05,0.3 -0.01,0.05 -0.1,0.52 -0.01,0.07 -0.25,1.39 -0.09,0.47 -0.18,0.99 -0.56,3 -0.17,0.9 -0.24,1.12 v 0.01 l -0.04,0.21 -0.13,0.57 -0.52,2.19 -0.25,0.92 -0.08,0.25 v 0.02 l -0.23,0.72 -0.34,0.98 -0.13,0.33 -0.12,0.3 -0.16,0.36 -0.39,0.79 -0.03,0.07 -0.05,0.08 -0.12,0.21 -0.05,0.09 -0.07,0.12 -0.52,0.75 -0.03,0.03 -0.12,0.16 -0.7,0.73 -0.45,0.37 -0.68,0.42 -0.67,0.32 -0.44,0.15 -0.43,0.12 -0.17,0.04 -0.14,0.02 -0.06,0.02 v 0 l -0.11,0.02 -0.17,0.02 -1.3,0.12 h -0.47 l -1,-0.05 -1.25,-0.13 -0.44,-0.06 -0.1,-0.02 h -0.02 l -0.34,-0.06 -0.4,-0.07 -2.09,-0.44 -1.4,-0.34 -0.84,-0.23 -0.11,-0.03 -1.03,-0.28 -0.91,-0.26 -0.17,-0.05 -0.54,-0.16 -0.51,-0.15 -1.8,-0.55 -0.15,-0.05 -0.43,-0.13 -1.52,-0.47 -0.31,-0.1 -1.63,-0.52 -1.39,-0.44 -2.3,-0.73 -2.75,-0.88 -0.79,-0.25 -0.11,-0.04 -1.66,-0.52 -0.12,-0.04 -1.36,-0.42 -1.68,-0.52 -0.75,-0.23 -2.48,-0.76 -0.05,-0.01 -0.01,-0.01 -4.25,-1.26 -0.09,-0.03 -2.8,-0.81 -5.65,-1.58 -1.96,-0.54 -0.78,-0.21 -7.76,-2 -0.07,-0.02 -2.5,-0.61 -1.92,-0.47 -0.3,-0.07 -0.58,-0.14 -2.79,-0.65 -0.71,-0.17 -0.86,-0.19 -2.29,-0.52 -0.31,-0.07 -1.69,-0.37 -3.3,-0.71 -0.88,-0.19 h -0.04 l -0.08,-0.02 -12.89,-2.54 -0.92,-0.17 -1.5,-0.27 -0.93,-0.16 -2.64,-0.47 -0.47,-0.08 -0.86,-0.14 -5.01,-0.83 -2.21,-0.35 -2.92,-0.45 -1.12,-0.17 -1.79,-0.27 -7.69,-1.06 -0.03,-0.01 -4.81,-0.61 -3.91,-0.46 -1.47,-0.17 -0.14,-0.01 -0.33,-0.04 -0.29,-0.03 -0.28,-0.03 -0.11,-0.01 -3.14,-0.34 -0.73,-0.07 -0.13,-0.02 -3.08,-0.3 -0.89,-0.08 -0.91,-0.08 -5.6,-0.47 -1.81,-0.13 -0.39,-0.03 -2,-0.13 -1.38,-0.08 -0.44,-0.03 -2.28,-0.11 -3.22,-0.11 h -0.05 l -1.87,-0.03 h -0.17 -0.09 l -1.91,0.05 -1.53,0.29 0.03,0.08 0.15,0.1 0.08,0.04 0.12,0.04 0.06,0.02 0.16,0.05 0.11,0.03 0.83,0.19 0.09,0.02 4.24,0.66 0.59,0.07 0.21,0.03 0.24,0.03 1.37,0.16 0.95,0.1 0.41,0.05 5.95,0.58 4.56,0.39 2.49,0.2 3.84,0.29 6.03,0.42 4.31,0.28 2.06,0.12 5.77,0.34 5.15,0.27 1.7,0.09 3.3,0.16 3.6,0.17 0.59,0.03 10.15,0.43 7.24,0.28 2.08,0.07 2.1,0.07 14.54,0.43 2.97,0.08 4.51,0.1 12.52,0.24 3.85,0.06 11.31,0.12 6.84,0.04 5.45,0.02 12.97,-0.03 0.88,-0.01 h 0.15 l 9.08,-0.09 16.78,-0.29 25.29,-0.84 27.44,-1.56 5.06,-0.38 8.73,-0.74 4.25,-0.4 4.04,-0.4 0.55,-0.06 3.16,-0.34 16.98,-2.15 11.27,-1.8 1.21,-0.22 0.43,-0.08 9.84,-1.95 6.92,-1.61 2.91,-0.75 2.38,-0.64 1.92,-0.55 7.37,-2.32 6.33,-2.37 4.54,-1.97 0.46,-0.21 4.41,-2.24 3.59,-2.1 1.09,-0.7 1.89,-1.3 4.74,-3.84 6.61,-8.07 0.17,-0.29 2.28,-4.89 0.89,-2.86 0.15,-0.58 0.45,-2.26 0.04,-0.23 0.06,-0.39 0.15,-1.22 0.01,-0.08 0.2,-4.2 v -0.12 l -0.54,-6.45 -0.14,-0.81 -0.84,-4.01 -0.67,-2.51 -0.22,-0.75 -0.15,-0.49 -0.59,-1.85 -0.57,-1.62 -0.05,-0.14 -2.26,-5.65 -0.53,-1.2 -0.96,-2.09 -0.94,-1.93 -2.42,-4.64 -2.49,-4.4 -2.17,-3.61 -14.01,-20.2 -4.3,-5.51 -1.27,-1.6 -5.79,-7.02 -8.17,-9.37 -0.52,-0.57 -2.29,-2.54 -0.77,-0.84 -7.08,-7.55 -2.64,-2.74 -2.9,-2.96 -2.11,-2.13 -6.38,-6.29 -1.96,-1.9 -1.41,-1.35 -3.36,-3.19 -2,-1.88 -7.7,-7.19 -1.66,-1.56 -4.17,-4.01 -0.9,-0.93 -1.56,-1.71 -0.23,-0.27 -0.51,-0.68 -0.01,-0.02 -0.3,-0.45 -0.41,-0.96 1.2,-1.03 0.64,-0.02 0.49,0.02 1.89,0.24 8.66,2.03 0.84,0.23 2.57,0.71 5.06,1.44 5.16,1.5 3.42,1.01 5.62,1.67 0.08,0.03 3.99,1.2 3.39,1.03 4.95,1.51 0.28,0.09 2.05,0.63 9.7,3.04 38.45,13.81 11.41,5.49 0.37,0.21 2.12,1.2 0.31,0.18 10.91,8.47 0.28,0.32 0.54,0.64 0.11,0.14 3.67,12.36 -0.16,0.86 -0.39,1.46 -0.19,0.59 -0.4,1.08"
       style="fill:none;stroke:#000000;stroke-width:1.07;stroke-linecap:butt;stroke-linejoin:round;stroke-miterlimit:10;stroke-dasharray:1.07, 3.2;stroke-dashoffset:0;stroke-opacity:0.977425"
       id="path62-4" /></g></svg>
