<?xml version="1.0" encoding="utf-8"?>
<!-- Generator: Adobe Illustrator 16.0.0, SVG Export Plug-In . SVG Version: 6.00 Build 0)  -->
<!DOCTYPE svg PUBLIC "-//W3C//DTD SVG 1.1//EN" "http://www.w3.org/Graphics/SVG/1.1/DTD/svg11.dtd">
<svg version="1.1" id="Calque_1" xmlns="http://www.w3.org/2000/svg" xmlns:xlink="http://www.w3.org/1999/xlink" x="0px" y="0px"
	 width="595.28px" height="841.89px" viewBox="0 0 595.28 841.89" enable-background="new 0 0 595.28 841.89" xml:space="preserve">
<polygon fill="#008BD2" points="274.902,441.684 288.72,446.182 274.902,451.109 "/>
<g>
	<g>
		<path fill="#F39200" d="M244.939,427.008c0-5.413,3.608-8.537,7.789-8.537c3.213,0,5.545,1.54,6.381,3.785h0.088
			c0.836-2.245,3.168-3.785,6.381-3.785c4.181,0,7.789,3.125,7.789,8.537v13.334h-4.577v-13.29c0-2.552-1.628-4.005-3.521-4.005
			c-2.2,0-3.829,1.32-3.829,4.621v12.674h-4.577v-12.674c0-3.301-1.628-4.621-3.829-4.621c-1.892,0-3.521,1.453-3.521,4.005v13.29
			h-4.577V427.008z"/>
		<path fill="#F39200" stroke="#F39200" stroke-width="0.7" stroke-miterlimit="10" d="M275.411,436.479l10.046-7.93
			c1.244-1.009,1.814-2.051,1.814-3.192c0-1.882-1.848-3.259-3.998-3.259c-1.949,0-3.629,1.041-4.67,2.654l-3.629-1.378
			c1.848-2.755,4.838-4.57,8.534-4.57c4.872,0,7.661,3.058,7.661,6.62c0,2.251-1.311,4.133-3.528,5.812l-7.325,5.544v0.067h10.786
			v3.494h-15.691V436.479z"/>
		<path fill="#F39200" d="M314.304,437.965c0,7.041-5.368,11.09-11.134,11.09c-2.948,0-6.557-1.232-8.977-4.225l3.74-2.729
			c0.88,1.232,2.861,2.641,5.017,2.641c4.665,0,7.041-3.036,7.041-6.293v-1.408c-1.937,2.156-4.137,3.301-7.261,3.301
			c-5.501,0-10.342-4.137-10.342-10.869c0-6.998,5.193-11.002,10.869-11.002c2.861,0,5.148,1.1,6.645,3.081h0.089v-2.508h4.312
			V437.965z M303.654,436.029c3.696,0,6.337-2.949,6.337-6.602c0-3.696-2.86-6.645-6.337-6.645c-3.564,0-6.425,2.948-6.425,6.602
			C297.229,433.08,299.781,436.029,303.654,436.029z"/>
	</g>
</g>
<path fill="none" stroke="#004899" stroke-width="3.2" stroke-miterlimit="10" d="M291.366,405.399c8-1.601,17.6-3.2,24-9.601
	c7.703,4.623,19.453,15.918,18.737,31.668c-0.159,7.75-2.909,13.75-2.737,17.932c0.132,3.198,3.199,6.402,4.801,9.601
	c-11.201,4.802-22.4,3.201-33.602,1.601c-6.398,0-14.398,4.799-12.799,14.399c-5.338-4.573-7.768-10.239-9.369-16.129"/>
<path fill="none" stroke="#F39200" stroke-width="3.2" stroke-linecap="round" stroke-miterlimit="10" stroke-dasharray="0.16,4" d="
	M289.767,391c1.6-8-4.801-12.801-8-19.2c0,12.8-17.6,4.8-25.601,9.6c1.601,1.601,3.2,3.2,3.2,4.8c-3.2,9.601,0,20.801,8,28.801
	c3.199-4.801,9.6-4.801,14.4-6.4"/>
<g>
	
		<image overflow="visible" opacity="0.55" width="125" height="125" xlink:href="A16FD536AD12B788.png"  transform="matrix(0.24 0 0 0.24 277.9658 379.1973)">
	</image>
	<g>
		<circle fill="#FFFFFF" cx="290.035" cy="391.266" r="4.8"/>
		
			<circle fill="none" stroke="#008BD2" stroke-width="3.2" stroke-linecap="round" stroke-miterlimit="10" cx="290.035" cy="391.266" r="4.8"/>
	</g>
</g>
<g>
	
		<image overflow="visible" opacity="0.55" width="125" height="125" xlink:href="A16FD536AD12B789.png"  transform="matrix(0.24 0 0 0.24 269.9658 352.5303)">
	</image>
	<g>
		<circle fill="#FFFFFF" cx="282.035" cy="364.6" r="4.8"/>
		
			<circle fill="none" stroke="#008BD2" stroke-width="3.2" stroke-linecap="round" stroke-miterlimit="10" cx="282.035" cy="364.6" r="4.8"/>
	</g>
</g>
<g>
	
		<image overflow="visible" opacity="0.55" width="125" height="125" xlink:href="A16FD536AD12B78F.png"  transform="matrix(0.24 0 0 0.24 240.0967 369.0645)">
	</image>
	<g>
		<circle fill="#FFFFFF" cx="252.166" cy="381.133" r="4.8"/>
		
			<circle fill="none" stroke="#008BD2" stroke-width="3.2" stroke-linecap="round" stroke-miterlimit="10" cx="252.166" cy="381.133" r="4.8"/>
	</g>
</g>
<g>
	
		<image overflow="visible" opacity="0.55" width="125" height="125" xlink:href="A16FD536AD12B78A.png"  transform="matrix(0.24 0 0 0.24 269.6963 395.9961)">
	</image>
	<g>
		<circle fill="#FFFFFF" cx="281.766" cy="408.066" r="4.8"/>
		
			<circle fill="none" stroke="#008BD2" stroke-width="3.2" stroke-linecap="round" stroke-miterlimit="10" cx="281.766" cy="408.066" r="4.8"/>
	</g>
</g>
<g>
	
		<image overflow="visible" opacity="0.55" width="125" height="125" xlink:href="A16FD536AD12B78B.png"  transform="matrix(0.24 0 0 0.24 302.7656 384.2637)">
	</image>
	<g>
		<path fill="#FFFFFF" d="M319.634,396.333c0,2.651-2.148,4.8-4.801,4.8c-2.65,0-4.799-2.148-4.799-4.8c0-2.649,2.148-4.8,4.799-4.8
			C317.485,391.533,319.634,393.684,319.634,396.333"/>
		<path fill="none" stroke="#008BD2" stroke-width="3.2" stroke-linecap="round" stroke-miterlimit="10" d="M319.634,396.333
			c0,2.651-2.148,4.8-4.801,4.8c-2.65,0-4.799-2.148-4.799-4.8c0-2.649,2.148-4.8,4.799-4.8
			C317.485,391.533,319.634,393.684,319.634,396.333"/>
	</g>
</g>
<g>
	
		<image overflow="visible" opacity="0.55" width="125" height="125" xlink:href="A16FD536AD12B786.png"  transform="matrix(0.24 0 0 0.24 323.832 443.4648)">
	</image>
	<g>
		<path fill="#FFFFFF" d="M340.7,455.533c0,2.65-2.15,4.8-4.799,4.8c-2.65,0-4.801-2.149-4.801-4.8s2.15-4.8,4.801-4.8
			C338.55,450.733,340.7,452.883,340.7,455.533"/>
		<path fill="none" stroke="#008BD2" stroke-width="3.2" stroke-linecap="round" stroke-miterlimit="10" d="M340.7,455.533
			c0,2.65-2.15,4.8-4.799,4.8c-2.65,0-4.801-2.149-4.801-4.8s2.15-4.8,4.801-4.8C338.55,450.733,340.7,452.883,340.7,455.533"/>
	</g>
</g>
<g>
	
		<image overflow="visible" opacity="0.55" width="125" height="125" xlink:href="A16FD536AD12B787.png"  transform="matrix(0.24 0 0 0.24 277.4307 459.4648)">
	</image>
	<g>
		<path fill="#FFFFFF" d="M294.3,471.533c0,2.65-2.148,4.8-4.799,4.8s-4.801-2.149-4.801-4.8s2.15-4.8,4.801-4.8
			S294.3,468.883,294.3,471.533"/>
		<path fill="none" stroke="#008BD2" stroke-width="3.2" stroke-linecap="round" stroke-miterlimit="10" d="M294.3,471.533
			c0,2.65-2.148,4.8-4.799,4.8s-4.801-2.149-4.801-4.8s2.15-4.8,4.801-4.8S294.3,468.883,294.3,471.533"/>
	</g>
</g>
</svg>
